<svg xmlns="http://www.w3.org/2000/svg" width="512" height="512" viewBox="0 0 512 512">
  <defs>
    <linearGradient id="bg" x1="0" y1="0" x2="1" y2="1">
      <stop offset="0%" stop-color="#6C5CE7"/>
      <stop offset="100%" stop-color="#a855f7"/>
    </linearGradient>
  </defs>
  <rect width="512" height="512" rx="96" fill="url(#bg)"/>
  <g transform="translate(256,256) scale(0.6)">
    <path d="M-120,-80 C-120,-180 -60,-220 0,-220 C60,-220 120,-180 120,-80 C120,-40 100,0 80,30 C60,60 80,100 80,140 L-80,140 C-80,100 -60,60 -80,30 C-100,0 -120,-40 -120,-80 Z" fill="white" opacity="0.95"/>
    <line x1="-50" y1="-100" x2="-50" y2="0" stroke="#6C5CE7" stroke-width="8" stroke-linecap="round" opacity="0.6"/>
    <line x1="0" y1="-140" x2="0" y2="-20" stroke="#6C5CE7" stroke-width="8" stroke-linecap="round" opacity="0.6"/>
    <line x1="50" y1="-100" x2="50" y2="0" stroke="#6C5CE7" stroke-width="8" stroke-linecap="round" opacity="0.6"/>
    <rect x="-60" y="160" width="120" height="20" rx="10" fill="white" opacity="0.7"/>
    <rect x="-40" y="190" width="80" height="20" rx="10" fill="white" opacity="0.5"/>
    <circle cx="-140" cy="-120" r="12" fill="#FDCB6E"/>
    <circle cx="150" cy="-100" r="8" fill="#00CEC9"/>
    <circle cx="-100" cy="-200" r="6" fill="#FF6B6B"/>
    <line x1="-160" y1="-100" x2="-130" y2="-130" stroke="#FDCB6E" stroke-width="3" stroke-linecap="round"/>
    <line x1="-150" y1="-140" x2="-140" y2="-110" stroke="#FDCB6E" stroke-width="3" stroke-linecap="round"/>
  </g>
</svg>